        <svg>
            <path fill="#fff" d="M194.897 79.492c-8.392-12.793-22.602-21.27-38.773-21.27-5.322 0-10.496.915-15.32 2.62a30.755 30.755 0 0 1-4.039-15.3c0-17.078 13.325-30.792 29.918-30.792 4.274 0 8.046.776 11.565 2.328 1.746-2.566 3.491-5.64 5.236-9.476 7.108 4.095 19.786 14.99 21.26 33.397L190.72 61.88l4.177 17.612Z"/>
            <path fill="#000" d="m49.277 186.425 8.718 18.407-1.743-30.679-6.975 12.272Z"/>
            <path fill="#000" d="m21.867 193.558 92.839-164.565C122.124 11.853 138.827 0 158.135 0c9.302 0 18.102 2.588 25.393 7.504-1.76 3.882-3.52 6.987-5.28 9.575-3.52-1.553-7.291-2.33-11.565-2.33-16.594 0-29.919 13.716-29.919 30.794 0 5.646 1.496 10.83 4.04 15.3a45.95 45.95 0 0 1 15.319-2.62c25.896 0 46.764 21.736 46.764 48.131 0 1.104-.183 2.209-.394 3.475l-.109.665h.252c-.126.906-.315 1.811-.503 2.717-.189.906-.377 1.811-.503 2.717v.259c-17.487 91.789-126.812 89.821-143.747 89.031l.112-.386-1.743-30.679-6.872 12.197-27.513 7.208Z"/>
            <path fill="#fff" d="m99.304 170.528-2.012 1.552s66.877-11.127 77.437-67.797l-10.56 3.623s-2.765 43.99-64.865 62.622Z"/>
            <path fill="#000" d="M185.54 42.697c3.332 0 6.034-2.781 6.034-6.211s-2.702-6.21-6.034-6.21c-3.333 0-6.034 2.78-6.034 6.21s2.701 6.21 6.034 6.21ZM204.648 41.144l-11.817 18.114h31.93l-20.113-18.114ZM56.252 174.153.456 273.202l41.847-14.025 15.692-54.345-1.743-30.679Z"/>
        </svg>
